<?xml version="1.0" encoding="UTF-8"?>
<svg version="1.1" xmlns="http://www.w3.org/2000/svg" width="300" height="300">
<path d="M0 0 C99 0 198 0 300 0 C300 99 300 198 300 300 C201 300 102 300 0 300 C0 201 0 102 0 0 Z " fill="#1763DE" transform="translate(0,0)"/>
<path d="M0 0 C0.05607422 1.66289063 0.05607422 1.66289063 0.11328125 3.359375 C0.17895448 4.82294974 0.24540135 6.28648991 0.3125 7.75 C0.34633789 8.84441406 0.34633789 8.84441406 0.38085938 9.9609375 C0.5964584 14.272918 0.90451454 16.92835556 4 20 C6.51107444 20.61678108 6.51107444 20.61678108 9.3894043 20.54589844 C10.49031906 20.56561707 11.59123383 20.58533569 12.72550964 20.60565186 C14.50687065 20.60749481 14.50687065 20.60749481 16.32421875 20.609375 C17.54075638 20.62591125 18.75729401 20.64244751 20.01069641 20.65948486 C23.90301474 20.70813826 27.79494189 20.72937527 31.6875 20.75 C34.32358757 20.77814501 36.95965679 20.80807034 39.59570312 20.83984375 C46.06373065 20.91390206 52.53164738 20.96544281 59 21 C59.46325684 21.96784424 59.92651367 22.93568848 60.40380859 23.93286133 C61.02663315 25.21193888 61.64986429 26.49081851 62.2734375 27.76953125 C62.72867798 28.72478699 62.72867798 28.72478699 63.19311523 29.69934082 C65.65602844 34.71813812 68.29318005 38.04527823 73 41 C73.84986984 41.2875264 74.69973969 41.5750528 75.57536316 41.87129211 C78 44 78 44 78.45427895 46.15753746 C78.61949544 49.17310769 78.61731195 52.15276149 78.56762695 55.17260742 C78.56872215 56.89964653 78.56872215 56.89964653 78.56983948 58.66157532 C78.56634913 62.47668157 78.52741653 66.29057512 78.48828125 70.10546875 C78.47895835 72.74676344 78.47183978 75.38806676 78.46684265 78.02937317 C78.45129689 84.27685975 78.41025921 90.52390929 78.3600952 96.77120334 C78.30422395 103.88353043 78.27672094 110.9958783 78.25161803 118.10837018 C78.19934353 132.739139 78.11138743 147.36956339 78 162 C77.07736359 162.00808685 76.15472717 162.01617371 75.20413208 162.02450562 C66.52210775 162.10234763 57.84024068 162.18960648 49.15841866 162.28752708 C44.69467419 162.33753835 40.23095394 162.38386776 35.76708984 162.421875 C31.46167719 162.45866706 27.15646491 162.50501001 22.85122299 162.55806351 C21.20617044 162.57663991 19.56107489 162.59173579 17.9159584 162.60334396 C15.61710201 162.62015128 13.31870776 162.64917179 11.02001953 162.68115234 C9.7098587 162.69447601 8.39969788 162.70779968 7.04983521 162.7215271 C3.89147004 162.68194277 3.89147004 162.68194277 2 165 C1.72258755 167.23035297 1.72258755 167.23035297 1.8046875 169.7890625 C1.81435547 171.20058594 1.81435547 171.20058594 1.82421875 172.640625 C1.84097656 173.62546875 1.85773437 174.6103125 1.875 175.625 C1.88402344 176.61757812 1.89304688 177.61015625 1.90234375 178.6328125 C1.92595884 181.08878134 1.95889201 183.54427168 2 186 C24.76535195 186.02333896 47.53070194 186.04098409 70.29606342 186.05181217 C80.86591809 186.056973 91.43576533 186.06401167 102.00561523 186.07543945 C111.21606599 186.08539277 120.42651137 186.09185498 129.63696736 186.09408849 C134.51582612 186.09539449 139.39466949 186.09847341 144.27352333 186.10573006 C148.86249609 186.11250047 153.45144707 186.11461486 158.04042435 186.11310768 C159.72751293 186.11338355 161.41460221 186.11538263 163.10168648 186.11920547 C165.39967125 186.12415863 167.69757312 186.12299224 169.99555969 186.12025452 C171.28330449 186.12117631 172.57104929 186.1220981 173.89781666 186.12304783 C177.03574821 186.14273917 177.03574821 186.14273917 180 185 C180.25 187.8125 180.25 187.8125 180 191 C177.76785622 193.50000103 176.13276998 193.97415824 172.84155273 194.61474609 C167.74833213 196.04452363 164.67834159 199.69861863 161.09765625 203.4140625 C160.3750914 204.14370209 159.65252655 204.87334167 158.9080658 205.62509155 C156.61415799 207.94687668 154.33829617 210.28547288 152.0625 212.625 C150.5057184 214.2068727 148.94778757 215.78761527 147.38867188 217.3671875 C143.57903944 221.23180101 139.78405596 225.11034849 136 229 C148.16968752 229.06949845 160.33932786 229.12281059 172.50917339 229.15543652 C178.16007686 229.17109501 183.81084458 229.19233687 189.46166992 229.22631836 C194.91462858 229.2589049 200.36745663 229.27685163 205.82050514 229.28463173 C207.90133533 229.29017648 209.98215835 229.30100393 212.06293297 229.31719017 C214.97660161 229.33895483 217.88973 229.3419673 220.8034668 229.34057617 C221.66445984 229.351362 222.52545288 229.36214783 223.41253662 229.3732605 C229.08205433 229.34395373 232.29671115 228.30280161 236.6875 224.5625 C238.32730947 222.73347249 238.32730947 222.73347249 240 219 C240 224.28 240 229.56 240 235 C141 235 42 235 -60 235 C-61.216875 207.176875 -62.43375 179.35375 -63.6875 150.6875 C-64.22463623 142.03619873 -64.76177246 133.38489746 -65.31518555 124.47143555 C-65.56480758 117.38838901 -65.77109508 110.34391272 -65.76171875 103.26171875 C-65.76315439 102.34040342 -65.76459003 101.41908809 -65.76606917 100.46985412 C-65.66738834 71.51020573 -59.21662719 52.41514424 -38.67915344 31.63618469 C-6.32990648 0 -6.32990648 0 0 0 Z " fill="#0646AC" transform="translate(60,65)"/>
<path d="M0 0 C3.42461769 1.90988294 5.5683934 3.38180289 7.81616211 6.60131836 C12.96920639 10.48358659 18.41808168 9.64618568 24.69140625 9.56640625 C26.04232136 9.56936829 27.39323298 9.57510274 28.74412537 9.58348083 C33.01714323 9.60418321 37.28952419 9.58456273 41.5625 9.5625 C46.51925092 9.54137669 51.47534421 9.53683739 56.43208122 9.56300163 C58.4129801 9.56635808 60.39387018 9.54465994 62.37464905 9.52259827 C64.18188698 9.52796852 64.18188698 9.52796852 66.02563477 9.53344727 C67.08532974 9.52724869 68.14502472 9.52105011 69.23683167 9.5146637 C72.68727393 10.12071613 73.85786886 11.2857383 76 14 C76.48583984 16.05883789 76.48583984 16.05883789 76.4609375 18.22265625 C76.45707031 19.00833984 76.45320312 19.79402344 76.44921875 20.60351562 C76.42472656 21.41498047 76.40023437 22.22644531 76.375 23.0625 C76.37306641 24.28549805 76.37306641 24.28549805 76.37109375 25.53320312 C76.28169643 31.57745536 76.28169643 31.57745536 74 35 C71.00525286 35.99824905 68.92654666 36.15324032 65.79418945 36.20532227 C64.20287956 36.2352401 64.20287956 36.2352401 62.579422 36.26576233 C60.86368233 36.29083107 60.86368233 36.29083107 59.11328125 36.31640625 C57.35506294 36.3475779 57.35506294 36.3475779 55.56132507 36.37937927 C51.81177714 36.44483818 48.06215837 36.50374296 44.3125 36.5625 C41.77277909 36.60568868 39.23306538 36.64930308 36.69335938 36.69335938 C30.46231478 36.80051586 24.23119949 36.9022892 18 37 C17.73069168 37.69187408 17.46138336 38.38374817 17.18391418 39.09658813 C16.64972115 40.45377457 16.64972115 40.45377457 16.10473633 41.83837891 C15.75292801 42.73650299 15.40111969 43.63462708 15.03865051 44.55996704 C13.90549698 47.22200969 12.64049677 49.24022071 10.6875 51.375 C9.88892578 52.28378906 9.88892578 52.28378906 9.07421875 53.2109375 C7 55 7 55 3.42576599 56.40643311 C0.96027013 57.81478509 0.14902915 58.48759424 -0.65356255 61.24713898 C-0.90625435 64.2787928 -0.93065671 67.24402426 -0.88647461 70.28613281 C-0.89725037 71.43763824 -0.90802612 72.58914368 -0.91912842 73.77554321 C-0.94655821 77.58538434 -0.9246208 81.39327677 -0.90234375 85.203125 C-0.91172457 87.84300976 -0.9241797 90.48288525 -0.93959045 93.1227417 C-0.97082998 99.36307373 -0.96655573 105.60285579 -0.94951588 111.84322238 C-0.93184393 118.94849213 -0.95377192 126.05346712 -0.97902286 133.15869379 C-1.0300713 147.77252798 -1.03140158 162.38611339 -1 177 C-0.0795842 176.99333817 0.8408316 176.98667633 1.78913879 176.97981262 C10.45598544 176.91974388 19.12276235 176.87404717 27.78976917 176.84456348 C32.24575989 176.82889613 36.70157885 176.80763848 41.1574707 176.77368164 C45.4562976 176.74112612 49.75495912 176.72315505 54.05389977 176.71536827 C55.69539685 176.70981789 57.33688471 176.69897951 58.97831154 176.68280983 C61.2745596 176.66108569 63.57012108 176.6580309 65.86645508 176.65942383 C67.17439529 176.65276199 68.48233551 176.64610016 69.82991028 176.63923645 C73 177 73 177 74.92158508 178.39396667 C76.32326212 180.48141929 76.38730196 181.83878482 76.3984375 184.34375 C76.40230469 185.17777344 76.40617188 186.01179687 76.41015625 186.87109375 C76.39855469 187.73863281 76.38695312 188.60617188 76.375 189.5 C76.38660156 190.36753906 76.39820313 191.23507813 76.41015625 192.12890625 C76.40628906 192.96292969 76.40242187 193.79695312 76.3984375 194.65625 C76.39505371 195.41744141 76.39166992 196.17863281 76.38818359 196.96289062 C75.87312656 199.66580628 75.22452085 200.37142494 73 202 C69.93743134 202.37752342 69.93743134 202.37752342 66.0916748 202.38095093 C65.38477367 202.3856309 64.67787253 202.39031087 63.94955015 202.39513266 C61.57490129 202.40712271 59.20082528 202.39761015 56.82617188 202.38818359 C55.12618166 202.39224753 53.42619409 202.3975884 51.72621155 202.40411377 C47.10436872 202.41781443 42.48272632 202.41247741 37.8608799 202.40297651 C33.02960281 202.39539413 28.19834317 202.40242156 23.36706543 202.40713501 C15.25297964 202.41259671 7.13897571 202.40539008 -0.97509766 202.39111328 C-10.36311862 202.37478597 -19.75094414 202.38007419 -29.13896036 202.3965925 C-37.19167205 202.41019556 -45.24432482 202.41213281 -53.29704428 202.40427649 C-58.10993244 202.39959347 -62.92272867 202.39899235 -67.73561096 202.40888596 C-72.25986975 202.4175362 -76.78387595 202.41156941 -81.30810738 202.39420319 C-82.97100466 202.39022792 -84.63392312 202.39139009 -86.29681206 202.39799118 C-88.56205571 202.40615604 -90.82648353 202.39594741 -93.0916748 202.38095093 C-94.36077446 202.37981985 -95.62987411 202.37868877 -96.93743134 202.37752342 C-100 202 -100 202 -101.90750885 200.6035099 C-103.32841731 198.51796368 -103.38726446 197.16965201 -103.3984375 194.65625 C-103.40230469 193.82222656 -103.40617187 192.98820313 -103.41015625 192.12890625 C-103.39855469 191.26136719 -103.38695312 190.39382812 -103.375 189.5 C-103.38660156 188.63246094 -103.39820313 187.76492187 -103.41015625 186.87109375 C-103.40628906 186.03707031 -103.40242188 185.20304688 -103.3984375 184.34375 C-103.39505371 183.58255859 -103.39166992 182.82136719 -103.38818359 182.03710938 C-102.87152424 179.32578505 -102.24061077 178.62539602 -100 177 C-96.82991028 176.63923645 -96.82991028 176.63923645 -92.86645508 176.65942383 C-92.14425278 176.65898575 -91.42205048 176.65854767 -90.67796326 176.65809631 C-88.29154395 176.66018586 -85.90582777 176.68352387 -83.51953125 176.70703125 C-81.86472457 176.71262664 -80.20991292 176.716897 -78.55509949 176.71989441 C-74.20006586 176.73134776 -69.84533249 176.76081902 -65.49041748 176.79400635 C-61.04638735 176.82469674 -56.60230869 176.83839753 -52.15820312 176.85351562 C-43.43866431 176.88568838 -34.71936951 176.93689048 -26 177 C-25.94370915 161.70092776 -25.93305948 146.40229444 -25.97665405 131.10319233 C-25.99583377 123.99933943 -26.00011224 116.89606257 -25.96923828 109.79223633 C-25.93949275 102.93840345 -25.95136967 96.08565387 -25.98880005 89.23186302 C-25.99625521 86.61516734 -25.98968582 83.99839343 -25.96896362 81.38176918 C-25.94234285 77.7198696 -25.9652734 74.06141766 -26 70.3996582 C-25.98058853 69.31424744 -25.96117706 68.22883667 -25.94117737 67.11053467 C-25.91278936 61.66640509 -25.91278936 61.66640509 -28.73339844 57.29997826 C-30.81169695 55.95891385 -30.81169695 55.95891385 -32.96777344 55.00426006 C-38.40380848 52.3179489 -41.07959143 47.21149155 -43.171875 41.76171875 C-43.69152832 40.42113403 -43.69152832 40.42113403 -44.22167969 39.0534668 C-44.47852539 38.37582275 -44.73537109 37.69817871 -45 37 C-45.68238235 36.99413376 -46.36476471 36.98826752 -47.06782532 36.98222351 C-54.15673985 36.9183933 -61.24519602 36.83400059 -68.33374023 36.73754883 C-70.98081426 36.70425128 -73.62796011 36.67623458 -76.27514648 36.65356445 C-80.0756701 36.62010789 -83.87553255 36.56779514 -87.67578125 36.51171875 C-88.86335526 36.50532883 -90.05092926 36.4989389 -91.27449036 36.49235535 C-92.37540512 36.47256119 -93.47631989 36.45276703 -94.6105957 36.43237305 C-96.06620659 36.41571846 -96.06620659 36.41571846 -97.55122375 36.39872742 C-100.39864939 35.93508903 -101.30287599 35.29350565 -103 33 C-103.62693284 29.69676471 -103.46349808 26.35611558 -103.4375 23 C-103.45748047 22.08476563 -103.47746094 21.16953125 -103.49804688 20.2265625 C-103.49740234 19.34742187 -103.49675781 18.46828125 -103.49609375 17.5625 C-103.49794678 16.75941406 -103.4997998 15.95632812 -103.50170898 15.12890625 C-103 13 -103 13 -101.34700012 11.38822937 C-98.35579049 9.61895589 -96.41176558 9.6379436 -92.94628906 9.65942383 C-91.72532532 9.65965042 -90.50436157 9.65987701 -89.24639893 9.66011047 C-87.93274353 9.67559433 -86.61908813 9.69107819 -85.265625 9.70703125 C-83.90371162 9.71262936 -82.54179219 9.71689845 -81.17987061 9.71989441 C-77.60242921 9.73132639 -74.02535558 9.76077883 -70.44805908 9.79400635 C-66.79485041 9.82474309 -63.14158207 9.83840741 -59.48828125 9.85351562 C-52.32535352 9.88565059 -45.16272837 9.93682642 -38 10 C-37.7110083 9.37367676 -37.4220166 8.74735352 -37.12426758 8.10205078 C-35.71589341 5.46880396 -34.18775191 4.48020374 -31.6875 2.875 C-30.92824219 2.37742187 -30.16898437 1.87984375 -29.38671875 1.3671875 C-20.61220136 -3.65913179 -9.45733117 -3.39543127 0 0 Z " fill="#F2F2F3" transform="translate(164,50)"/>
<path d="M0 0 C7.12128627 3.24830602 11.13822213 9.75853366 14.48828125 16.5859375 C14.7925 17.19998947 15.09671875 17.81404144 15.41015625 18.44670105 C16.38525705 20.41913616 17.34896632 22.39689262 18.3125 24.375 C18.9870944 25.74509459 19.66247284 27.1148034 20.33862305 28.48413086 C21.65392454 31.14989532 22.96538977 33.81748558 24.2734375 36.48681641 C25.96082146 39.92028008 27.67098214 43.34087349 29.39916992 46.75390625 C30.60882521 49.14928888 31.7954554 51.5559561 32.98291016 53.96240234 C33.74446174 55.48806474 34.51675877 57.0083716 35.29443359 58.52587891 C36.71479647 61.29995572 38.10848319 64.08636034 39.5 66.875 C39.94641846 67.7316626 40.39283691 68.5883252 40.8527832 69.47094727 C44.55433925 76.99130321 44.99953018 83.50575123 43 91.625 C39.37296061 101.03211587 31.13912647 105.51721229 22.41015625 109.52734375 C6.00382459 116.61232317 -13.9316532 117.7572612 -31 112 C-42.02827951 107.47407829 -51.76251645 102.10346514 -57 91 C-60.10784156 80.21089113 -55.95238527 72.63783645 -51.125 63.1875 C-50.40759134 61.7529499 -49.69171943 60.31763037 -48.97729492 58.8815918 C-47.46103571 55.84048852 -45.93437978 52.80490408 -44.40087891 49.77246094 C-41.93147592 44.87961143 -39.51706706 39.96058802 -37.10546875 35.0390625 C-35.90093963 32.59136619 -34.69494025 30.14440293 -33.48797607 27.69790649 C-32.70949922 26.11813487 -31.93298212 24.53739589 -31.1585083 22.95565796 C-30.06816854 20.73326452 -28.9671537 18.51647764 -27.86328125 16.30078125 C-27.54610641 15.64900909 -27.22893158 14.99723694 -26.90214539 14.32571411 C-20.71210962 2.00255131 -13.68319299 -1.4327108 0 0 Z " fill="#F0F1F2" transform="translate(234,99)"/>
<path d="M0 0 C7.41635404 3.9451417 10.12644537 11.72488535 13.41796875 18.99902344 C15.11452875 22.62509912 17.04021831 26.12320922 18.94921875 29.640625 C22.33576868 35.96064081 25.47221807 42.36491973 28.48681641 48.86962891 C34.16198809 61.26061636 34.16198809 61.26061636 40.65234375 73.2265625 C42.78486931 78.51606218 42.35999618 85.96928868 40.83203125 91.39453125 C39.86946461 93.23022249 38.81569637 94.64364207 37.44921875 96.203125 C36.88976562 96.86828125 36.3303125 97.5334375 35.75390625 98.21875 C26.78905453 108.01838548 12.41366654 113.58942519 -0.76660156 114.32714844 C-20.21638624 114.94960302 -37.12600208 112.81132938 -52.7109375 99.98828125 C-57.1833229 95.64883299 -59.39561698 90.29399117 -60.55078125 84.203125 C-60.57027087 74.90353162 -56.17459614 67.34014246 -52.11328125 59.22265625 C-51.3510413 57.68073341 -50.58933156 56.13854837 -49.828125 54.59611511 C-48.23378854 51.37467381 -46.62850739 48.15897148 -45.01611328 44.9465332 C-42.96045211 40.84710622 -40.94004195 36.73139687 -38.92845154 32.61020374 C-37.36649597 29.42321335 -35.78246122 26.24758289 -34.19210815 23.07468224 C-33.43820514 21.56233679 -32.69188563 20.0461844 -31.9536438 18.52613258 C-25.16059617 4.58288046 -16.93657317 -5.29105808 0 0 Z " fill="#F1F1F2" transform="translate(82.55078125,99.796875)"/>
<path d="M0 0 C0.3125 2.8125 0.3125 2.8125 0 6 C-2.56390185 8.11144858 -4.82041658 8.9476215 -8 9.875 C-11.16034864 10.82413375 -11.16034864 10.82413375 -13.4375 13.4375 C-16.40239322 16.40239322 -19.17429443 17.3604119 -23 19 C-27.57112444 22.88568548 -29.98436138 27.19925745 -32.6328125 32.4609375 C-33.05926056 33.2898349 -33.48570862 34.1187323 -33.92507935 34.9727478 C-35.29438687 37.64305166 -36.64847854 40.32065532 -38 43 C-38.44742554 43.88175903 -38.89485107 44.76351807 -39.35583496 45.67199707 C-42.09265012 51.06593828 -44.80690053 56.47081344 -47.50683594 61.88330078 C-48.89216484 64.65939707 -50.28184372 67.43328702 -51.671875 70.20703125 C-52.57056947 72.00507992 -53.46901623 73.80325242 -54.3671875 75.6015625 C-54.97818802 76.82052719 -54.97818802 76.82052719 -55.60153198 78.06411743 C-57.53825393 81.95330131 -59.43674538 85.85951209 -61.26220703 89.80224609 C-61.58657745 90.49982025 -61.91094788 91.19739441 -62.24514771 91.91610718 C-64.32191251 97.64935499 -63.40131768 103.605409 -61.01953125 109.09765625 C-55.26925273 119.82710314 -44.03085439 124.69861017 -32.88671875 128.2734375 C-19.47975914 131.64785494 -3.03632009 131.71646892 10 127 C11.02480469 126.63648438 12.04960937 126.27296875 13.10546875 125.8984375 C24.55277038 121.49015986 32.85450983 115.37424143 38 104 C38.33 104 38.66 104 39 104 C39.78294726 110.1069886 37.34904509 114.12167157 34 119 C30.43297026 123.58211534 26.53941789 126.34192942 21.4375 129.0625 C13.28538357 133.54668065 7.31196142 140.26786364 1 147 C0.23420624 146.51486435 0.23420624 146.51486435 -0.54705811 146.01992798 C-3.85996233 144.64242951 -6.66032676 144.71775177 -10.24707031 144.68115234 C-10.96941864 144.67110672 -11.69176697 144.6610611 -12.43600464 144.65071106 C-14.81670355 144.61989198 -17.19729006 144.60284769 -19.578125 144.5859375 C-21.23151618 144.5672248 -22.88489781 144.54765131 -24.53826904 144.5272522 C-28.88487117 144.47593566 -33.23150425 144.43630742 -37.57824707 144.39910889 C-42.01578426 144.35906623 -46.45319271 144.30797508 -50.890625 144.2578125 C-59.59366204 144.16105886 -68.29676282 144.07665233 -77 144 C-77.23384567 128.73604135 -77.41006119 113.4721654 -77.51812172 98.20681667 C-77.56963623 91.11830625 -77.63983262 84.0309102 -77.75439453 76.94311523 C-77.86490814 70.10250878 -77.92284634 63.26306047 -77.94877243 56.42161751 C-77.96724698 53.81196941 -78.0033253 51.20238455 -78.05730057 48.59322929 C-78.12994005 44.93633225 -78.13989036 41.28421165 -78.13525391 37.62670898 C-78.18918304 36.00937866 -78.18918304 36.00937866 -78.24420166 34.359375 C-78.2018174 31.26844455 -78.05257771 28.91029555 -77 26 C-74.64940344 23.72194242 -72.33423623 22.1613667 -69.48328209 20.56195164 C-63.27920554 16.65966942 -60.75175177 9.48360541 -58 3 C-57.34489441 2.99191315 -56.68978882 2.98382629 -56.01483154 2.97549438 C-49.20158343 2.88949276 -42.38862772 2.78999081 -35.57568359 2.68261719 C-33.03243924 2.64431434 -30.48914048 2.6094638 -27.94580078 2.578125 C-24.29179423 2.53250338 -20.63816273 2.47450322 -16.984375 2.4140625 C-15.84570984 2.40251129 -14.70704468 2.39096008 -13.53387451 2.37905884 C-11.94267792 2.3492543 -11.94267792 2.3492543 -10.31933594 2.31884766 C-9.38667908 2.30552399 -8.45402222 2.29220032 -7.49310303 2.2784729 C-4.82343049 1.98027766 -2.47974495 0 0 0 Z " fill="#134EAE" transform="translate(240,83)"/>
<path d="M0 0 C2.6920038 2.39398734 4.1230266 4.87152058 5.72729492 8.08227539 C6.50776436 9.63387108 6.50776436 9.63387108 7.30400085 11.21681213 C7.85723526 12.33249069 8.41046967 13.44816925 8.98046875 14.59765625 C9.55332108 15.7428624 10.1261734 16.88806854 10.71638489 18.06797791 C11.92628516 20.48786801 13.13203434 22.90976681 14.3347168 25.33325195 C15.87809178 28.4427391 17.4303295 31.54769769 18.98549938 34.65129948 C20.46717145 37.61050509 21.94239079 40.57290694 23.41796875 43.53515625 C23.97727585 44.65285904 24.53658295 45.77056183 25.11283875 46.9221344 C25.62369522 47.95337936 26.1345517 48.98462433 26.66088867 50.04711914 C27.11372726 50.95740372 27.56656586 51.86768829 28.03312683 52.80555725 C29 55 29 55 29 57 C10.19 57 -8.62 57 -28 57 C-27.18432263 52.92161316 -26.42467481 50.47443385 -24.62329102 46.87426758 C-24.12930313 45.88006302 -23.63531525 44.88585846 -23.12635803 43.86152649 C-22.59094894 42.79991806 -22.05553986 41.73830963 -21.50390625 40.64453125 C-20.95516342 39.54654709 -20.40642059 38.44856293 -19.84104919 37.31730652 C-18.68133458 35.00021545 -17.51866979 32.68459895 -16.35327148 30.37036133 C-14.56578678 26.8190301 -12.78905142 23.2624737 -11.01367188 19.70507812 C-9.88605081 17.4554112 -8.75781653 15.20605151 -7.62890625 12.95703125 C-7.09552139 11.88935013 -6.56213654 10.82166901 -6.0125885 9.72163391 C-5.51544846 8.73688583 -5.01830841 7.75213776 -4.50610352 6.73754883 C-3.85110619 5.43446526 -3.85110619 5.43446526 -3.18287659 4.10505676 C-2 2 -2 2 0 0 Z " fill="#1751AF" transform="translate(227,119)"/>
<path d="M0 0 C3.27668948 2.7218828 4.82158753 6.31957161 6.62890625 10.078125 C7.3395808 11.52820351 8.05069715 12.97806556 8.76220703 14.42773438 C9.12952942 15.18046631 9.49685181 15.93319824 9.87530518 16.70874023 C11.70747019 20.44127806 13.58841156 24.14895574 15.46484375 27.859375 C16.58124278 30.0770936 17.69651283 32.29537766 18.81176758 34.51367188 C19.57341832 36.02673213 20.33647933 37.53908316 21.10083008 39.05078125 C22.22591725 41.27678057 23.34586952 43.5052979 24.46484375 45.734375 C24.97723854 46.74368073 24.97723854 46.74368073 25.49998474 47.77337646 C27.05469885 50.88205782 28.15082146 53.60328585 29 57 C10.19 57 -8.62 57 -28 57 C-26.63872912 52.91618736 -25.38518855 49.52128512 -23.49389648 45.74487305 C-22.99675644 44.74751633 -22.49961639 43.75015961 -21.9874115 42.72257996 C-21.45402664 41.66299576 -20.92064178 40.60341156 -20.37109375 39.51171875 C-19.54654442 37.86330742 -19.54654442 37.86330742 -18.70533752 36.18159485 C-17.54642123 33.86677639 -16.38556632 31.55292763 -15.22290039 29.23999023 C-13.43627923 25.68507097 -11.65615022 22.126999 -9.87695312 18.56835938 C-8.75037841 16.32012284 -7.62343807 14.07206948 -6.49609375 11.82421875 C-5.96068466 10.7545134 -5.42527557 9.68480804 -4.87364197 8.58268738 C-4.37965408 7.60109146 -3.8856662 6.61949554 -3.37670898 5.6081543 C-2.94083969 4.74022751 -2.5049704 3.87230072 -2.05589294 2.97807312 C-1 1 -1 1 0 0 Z " fill="#0B48AC" transform="translate(73,119)"/>
<path d="M0 0 C99 0 198 0 300 0 C300 5.28 300 10.56 300 16 C299.34 15.01 298.68 14.02 298 13 C295.57505598 9.68590984 293.82898979 7.52243467 290 6 C287.65835228 5.70054926 287.65835228 5.70054926 285.11767673 5.74273109 C284.13047848 5.7362822 283.14328023 5.72983331 282.12616688 5.723189 C280.5028887 5.7278348 280.5028887 5.7278348 278.84681702 5.73257446 C277.69536538 5.72804335 276.54391374 5.72351224 275.35756963 5.71884382 C272.16097315 5.70836285 268.96451789 5.7068758 265.76790965 5.70923257 C262.32066457 5.7096404 258.87345317 5.69860493 255.42622375 5.68911743 C248.6726123 5.67249982 241.91903576 5.66700757 235.16540558 5.66589268 C229.67688456 5.66494267 224.18837508 5.66083477 218.69985771 5.65449142 C203.14362976 5.63687784 187.58742941 5.62765287 172.03119142 5.62915237 C171.19243389 5.62923228 170.35367637 5.6293122 169.48950195 5.62939453 C168.22983224 5.62951717 168.22983224 5.62951717 166.94471466 5.62964229 C153.32979456 5.63045549 139.71498501 5.61130978 126.10009689 5.5831178 C112.12507485 5.55440806 98.15010678 5.54057641 84.17505449 5.54230535 C76.327202 5.54296986 68.47946544 5.5374509 60.63163948 5.51594925 C53.95089915 5.49776264 47.27032731 5.49336933 40.58957297 5.5069681 C37.18028416 5.51351031 33.77131884 5.51357039 30.36206055 5.4962616 C26.66780378 5.48090897 22.9744039 5.49005216 19.28016663 5.50552368 C18.20021189 5.49523656 17.12025716 5.48494943 16.00757653 5.47435057 C10.1547367 5.52319221 10.1547367 5.52319221 4.87702084 7.85902977 C2.86888032 10.14955792 1.88672204 12.09800059 1 15 C0.67 15 0.34 15 0 15 C0 10.05 0 5.1 0 0 Z " fill="#6B9BE8" transform="translate(0,0)"/>
<path d="M0 0 C0.77427778 0.48638474 0.77427778 0.48638474 1.56419754 0.98259544 C4.80080881 2.33448793 7.46473268 2.26304135 10.97283936 2.2784729 C11.67454451 2.2842653 12.37624966 2.2900577 13.09921861 2.29602563 C15.4499814 2.31302792 17.80054788 2.31590229 20.15136719 2.31884766 C21.83666973 2.32814568 23.52196767 2.33831417 25.20726013 2.34928894 C29.78331382 2.37661717 34.35933667 2.39174672 38.93545055 2.40471697 C43.71744007 2.42033515 48.49936651 2.44712955 53.28131104 2.4727478 C62.33701696 2.51955885 71.39273473 2.55629171 80.44849992 2.58942068 C90.75798808 2.62762562 101.06741293 2.67704005 111.37684774 2.72740483 C132.58451843 2.83075928 153.79222918 2.92000827 175 3 C173.42742252 5.46115875 173.42742252 5.46115875 171 8 C167.89247036 8.62361908 167.89247036 8.62361908 164.16123962 8.62145996 C163.13023293 8.63104319 163.13023293 8.63104319 162.07839781 8.64082003 C159.77554948 8.65607935 157.47441921 8.6356054 155.17163086 8.61523438 C153.52075124 8.6187353 151.86987498 8.62439356 150.2190094 8.63204956 C145.73549312 8.64631037 141.25258917 8.62922428 136.76913142 8.60576439 C132.08067331 8.58567766 127.39224117 8.59153375 122.70375061 8.59387207 C114.83096193 8.59381848 106.95841311 8.57404937 99.08569336 8.54199219 C89.97767757 8.50508577 80.86997592 8.49631817 71.76189512 8.5032897 C63.00637176 8.50958965 54.25095637 8.49885068 45.49545479 8.47932434 C41.76623563 8.47113969 38.03707156 8.46844274 34.30784416 8.47001648 C29.91896723 8.4708939 25.53038993 8.45671805 21.14159203 8.43078995 C19.52869367 8.42361359 17.91576346 8.42155157 16.30285263 8.42490768 C14.10549972 8.42860851 11.90902811 8.41392525 9.71177673 8.39440918 C8.48084762 8.39068047 7.2499185 8.38695175 5.9816885 8.38311005 C3 8 3 8 1.0922327 6.64331818 C-0.41079923 4.38193223 -0.21511155 2.65304248 0 0 Z " fill="#052C69" transform="translate(61,250)"/>
<path d="M0 0 C0.70576172 0.52400391 0.70576172 0.52400391 1.42578125 1.05859375 C2.35970703 1.74115234 2.35970703 1.74115234 3.3125 2.4375 C3.92738281 2.88996094 4.54226562 3.34242188 5.17578125 3.80859375 C9.03925655 6.3318485 12.83454435 6.15201529 17.27018738 6.15821838 C18.01595718 6.16315636 18.76172699 6.16809434 19.53009588 6.17318195 C22.03593078 6.1885738 24.54174004 6.19692213 27.04760742 6.20532227 C28.84113288 6.21489946 30.63465607 6.22490945 32.42817688 6.23532104 C37.30386233 6.26239332 42.17955747 6.28339031 47.05527663 6.30332303 C52.1482227 6.32516825 57.24113878 6.3525641 62.33406067 6.37937927 C71.98125386 6.42932597 81.62846367 6.47425747 91.27568942 6.51740164 C102.257432 6.56675712 113.23914449 6.62168151 124.22085798 6.67708123 C146.81387726 6.79093162 169.40692539 6.89776401 192 7 C190.97336864 8.96993637 190.97336864 8.96993637 189 11 C186.33850137 11.39262357 184.08838054 11.52347859 181.42610168 11.48101807 C180.25844435 11.48614462 180.25844435 11.48614462 179.06719798 11.49137473 C176.45043366 11.49798019 173.83468789 11.4759344 171.21801758 11.45410156 C169.34567794 11.45297366 167.47333653 11.45360583 165.60099792 11.45587158 C160.51027471 11.45702188 155.41992649 11.43346148 150.32929063 11.40557575 C145.01216409 11.38061467 139.69502948 11.37822428 134.37785339 11.37347412 C124.30556905 11.36102876 114.23345783 11.32818603 104.16124982 11.28807616 C92.69588472 11.24340698 81.23051146 11.22138363 69.76508105 11.20129442 C46.17662462 11.15945478 22.588322 11.08907241 -1 11 C-1.125 3.375 -1.125 3.375 0 0 Z " fill="#103B7D" transform="translate(1,289)"/>
<path d="M0 0 C0.33 0 0.66 0 1 0 C1 5.28 1 10.56 1 16 C-35.3 16 -71.6 16 -109 16 C-108.34 15.01 -107.68 14.02 -107 13 C-166.73 12.67 -226.46 12.34 -288 12 C-288 11.67 -288 11.34 -288 11 C-287.41403876 11.00151888 -286.82807751 11.00303776 -286.22435987 11.00460267 C-251.50283612 11.09409658 -216.78133539 11.16273691 -182.05972084 11.20426132 C-177.89153896 11.2092642 -173.72335731 11.21444148 -169.55517578 11.21972656 C-168.31045022 11.22130043 -168.31045022 11.22130043 -167.04057868 11.22290608 C-153.60068725 11.24031582 -140.1608642 11.27185663 -126.72101335 11.30861118 C-112.93257734 11.34600481 -99.14417715 11.36823251 -85.35569251 11.37635398 C-76.84603284 11.38184504 -68.33656643 11.39919389 -59.82696624 11.43166587 C-53.99322475 11.45279429 -48.15958329 11.45920385 -42.3258063 11.45400551 C-38.95886207 11.45144103 -35.59252844 11.45757759 -32.22559738 11.4768219 C-28.57528753 11.49666663 -24.92581053 11.49195829 -21.27548218 11.48101807 C-20.2112756 11.49266943 -19.14706902 11.5043208 -18.05061376 11.51632524 C-12.02316278 11.46735828 -8.62233844 10.96047536 -4 7 C-3.401875 6.505 -2.80375 6.01 -2.1875 5.5 C-0.77567869 3.71664677 -0.38332882 2.22330714 0 0 Z " fill="#134799" transform="translate(299,284)"/>
<path d="M0 0 C0.33 0 0.66 0 1 0 C1.78275548 6.10549272 -0.64967537 10.12370054 -4 15 C-8.85710756 21.20700499 -15.00289597 24.58474684 -22 28 C-23.155 28.5775 -24.31 29.155 -25.5 29.75 C-41.5676569 35.48844889 -63.57874112 35.52014024 -79.11669922 28.35400391 C-89.08188184 23.48887813 -96.23050167 18.63719065 -101.1875 8.4296875 C-102.0633598 5.81052984 -102.15617236 3.74277713 -102 1 C-100.52767837 2.93028213 -99.09510594 4.85215903 -97.78125 6.89453125 C-90.89429786 17.20396266 -79.58552819 21.73988625 -68 25 C-55.19061826 27.40651881 -40.30546849 27.45205083 -28 23 C-26.97519531 22.63648438 -25.95039063 22.27296875 -24.89453125 21.8984375 C-13.44722962 17.49015986 -5.14549017 11.37424143 0 0 Z " fill="#133773" transform="translate(278,187)"/>
<path d="M0 0 C1.58278975 4.88026839 0.17348387 8.49778341 -2 13 C-10.21913362 24.51893356 -22.33986544 30.96179375 -36.08984375 33.53515625 C-55.54995311 35.84859582 -74.91572074 33.9251121 -91 22 C-91.928125 21.360625 -92.85625 20.72125 -93.8125 20.0625 C-96.72899273 17.312664 -98.15283042 14.56694816 -100 11 C-100.6496875 9.9171875 -100.6496875 9.9171875 -101.3125 8.8125 C-102.18227814 6.51944855 -101.81129179 5.27161701 -101 3 C-99 5 -99 5 -97.5 8.1875 C-94.61534152 13.32646565 -89.93476731 16.01053227 -85 19 C-84.21367188 19.47695312 -83.42734375 19.95390625 -82.6171875 20.4453125 C-68.37070179 28.29733598 -49.0879376 29.47363886 -33.375 25.75 C-31.57336645 25.19821764 -29.78082842 24.61562763 -28 24 C-26.57300781 23.56494141 -26.57300781 23.56494141 -25.1171875 23.12109375 C-15.33150589 19.93474783 -8.00973864 14.39032763 -2 6 C-0.53867114 2.72017567 -0.53867114 2.72017567 0 0 Z " fill="#0B316F" transform="translate(124,186)"/>
<path d="M0 0 C0.3125 2.8125 0.3125 2.8125 0 6 C-3.47069247 8.66226433 -6.10946857 9.38078125 -10.43286133 9.43237305 C-11.49358353 9.45216721 -12.55430573 9.47196136 -13.64717102 9.49235535 C-15.34742683 9.50194023 -15.34742683 9.50194023 -17.08203125 9.51171875 C-18.25134689 9.52966995 -19.42066254 9.54762115 -20.62541199 9.56611633 C-24.35440482 9.62023057 -28.08326954 9.65411968 -31.8125 9.6875 C-34.34311679 9.72067197 -36.87371667 9.75516151 -39.40429688 9.79101562 C-45.60274972 9.87595789 -51.80121911 9.94430329 -58 10 C-58.33406357 10.83275955 -58.66812714 11.6655191 -59.01231384 12.52351379 C-59.4554744 13.61121567 -59.89863495 14.69891754 -60.35522461 15.81958008 C-60.79241318 16.89983963 -61.22960175 17.98009918 -61.68003845 19.09309387 C-63.17192291 22.37861994 -64.74802743 24.43102721 -67.5625 26.6875 C-68.30628906 27.31011719 -69.05007812 27.93273437 -69.81640625 28.57421875 C-71.93597991 29.95819798 -73.52369224 30.57885922 -76 31 C-76.5625 28.375 -76.5625 28.375 -76 25 C-74.20703125 23.58203125 -74.20703125 23.58203125 -71.875 22.1875 C-64.26771833 17.61834655 -61.37282607 10.95404511 -58 3 C-57.34489441 2.99191315 -56.68978882 2.98382629 -56.01483154 2.97549438 C-49.20158343 2.88949276 -42.38862772 2.78999081 -35.57568359 2.68261719 C-33.03243924 2.64431434 -30.48914048 2.6094638 -27.94580078 2.578125 C-24.29179423 2.53250338 -20.63816273 2.47450322 -16.984375 2.4140625 C-15.84570984 2.40251129 -14.70704468 2.39096008 -13.53387451 2.37905884 C-11.94267792 2.3492543 -11.94267792 2.3492543 -10.31933594 2.31884766 C-9.38667908 2.30552399 -8.45402222 2.29220032 -7.49310303 2.2784729 C-4.82343049 1.98027766 -2.47974495 0 0 0 Z " fill="#224379" transform="translate(240,83)"/>
<path d="M0 0 C0.99 0.33 1.98 0.66 3 1 C4.79403055 1.11591448 6.59186356 1.17652871 8.3894043 1.20532227 C9.49031906 1.22526749 10.59123383 1.24521271 11.72550964 1.26576233 C13.50687065 1.29083107 13.50687065 1.29083107 15.32421875 1.31640625 C16.54075638 1.33718735 17.75729401 1.35796844 19.01069641 1.37937927 C22.90290596 1.44484717 26.79518385 1.50374715 30.6875 1.5625 C33.32357482 1.60568782 35.95964269 1.6493022 38.59570312 1.69335938 C45.06372951 1.80052578 51.53182411 1.90229745 58 2 C58.46253174 2.96711914 58.92506348 3.93423828 59.40161133 4.93066406 C60.02385922 6.20917528 60.6465211 7.48748506 61.26953125 8.765625 C61.72398621 9.72009521 61.72398621 9.72009521 62.18762207 10.69384766 C65.47503707 17.39503291 69.40181244 20.83747002 76 24 C76 25.98 76 27.96 76 30 C70.05972423 28.69603703 66.70913704 25.61841577 63 21 C60.61236136 17.13806641 59.06329642 13.40108783 58 9 C57.34711502 8.99413376 56.69423004 8.98826752 56.02156067 8.98222351 C49.22429362 8.91827366 42.42749933 8.83384938 35.63061523 8.73754883 C33.09422032 8.70430112 30.55775144 8.67626875 28.02124023 8.65356445 C24.37451672 8.6200166 20.72847089 8.56769848 17.08203125 8.51171875 C15.94852737 8.50532883 14.8150235 8.4989389 13.64717102 8.49235535 C12.58644882 8.47256119 11.52572662 8.45276703 10.43286133 8.43237305 C9.03720695 8.41571846 9.03720695 8.41571846 7.61335754 8.39872742 C4.4583962 7.91736596 2.54079597 6.91254621 0 5 C-0.3125 2.3125 -0.3125 2.3125 0 0 Z " fill="#163A72" transform="translate(61,84)"/>
<path d="M0 0 C2.62741937 2.35104328 4.06042755 4.74126508 5.63549805 7.8828125 C6.13579025 8.87394043 6.63608246 9.86506836 7.15153503 10.88623047 C7.68289566 11.95502441 8.21425629 13.02381836 8.76171875 14.125 C9.31237503 15.22344238 9.86303131 16.32188477 10.43037415 17.45361328 C11.5923594 19.77554274 12.75131659 22.09898967 13.9074707 24.42382812 C15.09528728 26.81021371 16.28607224 29.19470841 17.48364258 31.57617188 C19.20776903 35.0059393 20.92357482 38.43973595 22.63671875 41.875 C23.17415207 42.94379395 23.71158539 44.01258789 24.26530457 45.11376953 C24.75614029 46.10489746 25.24697601 47.09602539 25.75268555 48.1171875 C26.18775925 48.98972168 26.62283295 49.86225586 27.0710907 50.76123047 C28 53 28 53 28 56 C25 55 25 55 23.74156189 53.06420898 C23.32789871 52.21673096 22.91423553 51.36925293 22.48803711 50.49609375 C22.01422104 49.53840088 21.54040497 48.58070801 21.05223083 47.59399414 C20.5490181 46.55235107 20.04580536 45.51070801 19.52734375 44.4375 C19.00362686 43.37587646 18.47990997 42.31425293 17.94032288 41.22045898 C16.2631926 37.81822283 14.5994229 34.40968744 12.9375 31 C11.27064889 27.59102218 9.60093851 24.18355162 7.92396545 20.77954102 C6.87933267 18.65809637 5.84080393 16.53363356 4.80882263 14.40600586 C4.33815872 13.44831299 3.86749481 12.49062012 3.38256836 11.50390625 C2.96970078 10.65642822 2.55683319 9.8089502 2.13145447 8.93579102 C1.14618821 6.84537497 1.14618821 6.84537497 -1 6 C-1.33644531 7.14662109 -1.33644531 7.14662109 -1.6796875 8.31640625 C-3.48769378 13.36063679 -5.79832062 18.11452033 -8.125 22.9375 C-8.61419922 23.95642334 -9.10339844 24.97534668 -9.60742188 26.02514648 C-13.0219546 33.09133226 -16.58495112 40.05292948 -20.34375 46.94140625 C-21.96250713 49.93076198 -23.49632719 52.95139507 -25 56 C-25.66 56 -26.32 56 -27 56 C-26.45422649 51.89894658 -25.56825208 48.63803209 -23.71508789 44.94433594 C-23.24112076 43.99024841 -22.76715363 43.03616089 -22.27882385 42.05316162 C-21.76528854 41.04046204 -21.25175323 40.02776245 -20.72265625 38.984375 C-19.93283607 37.40610931 -19.93283607 37.40610931 -19.12705994 35.79595947 C-18.01533539 33.57854034 -16.89973254 31.36306194 -15.78051758 29.14941406 C-14.06382164 25.75261512 -12.36007952 22.34955652 -10.65820312 18.9453125 C-9.57627639 16.791287 -8.4936192 14.6376282 -7.41015625 12.484375 C-6.89864517 11.46357849 -6.38713409 10.44278198 -5.86012268 9.39105225 C-5.38300339 8.44957336 -4.90588409 7.50809448 -4.41430664 6.53808594 C-3.78595665 5.29282135 -3.78595665 5.29282135 -3.14491272 4.0223999 C-2 2 -2 2 0 0 Z " fill="#26477D" transform="translate(227,119)"/>
<path d="M0 0 C3.27562733 2.72110683 4.81885611 6.31661262 6.625 10.07421875 C7.33540382 11.52418738 8.04636173 12.97388463 8.7578125 14.42333984 C9.30937012 15.55301178 9.30937012 15.55301178 9.87207031 16.70550537 C11.71399417 20.45244497 13.6096266 24.17187511 15.5 27.89453125 C16.62322007 30.11872549 17.7450436 32.34361999 18.86669922 34.56860352 C19.63451077 36.08884393 20.40443326 37.60801971 21.17626953 39.1262207 C22.31060351 41.35871669 23.43728447 43.59492861 24.5625 45.83203125 C25.08263672 46.8490789 25.08263672 46.8490789 25.61328125 47.88667297 C27.06532184 50.78970807 28 52.70745691 28 56 C25 55 25 55 23.72810364 53.05747986 C23.30840805 52.20698563 22.88871246 51.35649139 22.45629883 50.48022461 C21.97602737 49.51930405 21.49575592 48.55838348 21.00093079 47.56834412 C20.49144394 46.523564 19.98195709 45.47878387 19.45703125 44.40234375 C18.92857101 43.33834854 18.40011078 42.27435333 17.8556366 41.17811584 C16.16517611 37.76914321 14.4887332 34.35348733 12.8125 30.9375 C11.67083655 28.6291047 10.52826995 26.32115582 9.38476562 24.01367188 C6.57933234 18.34759201 3.78538605 12.67595932 1 7 C-1.13580955 9.71046716 -2.80189127 12.37746075 -4.3125 15.47729492 C-4.74304688 16.35467819 -5.17359375 17.23206146 -5.6171875 18.1360321 C-6.07351562 19.0746962 -6.52984375 20.01336029 -7 20.98046875 C-7.97882681 22.96826635 -8.95800395 24.95589146 -9.9375 26.94335938 C-11.47553492 30.07538016 -13.01040501 33.20884974 -14.5390625 36.34545898 C-16.01723203 39.37404832 -17.5076725 42.39633641 -19 45.41796875 C-19.45632812 46.36270554 -19.91265625 47.30744232 -20.3828125 48.2808075 C-20.81335937 49.14873428 -21.24390625 50.01666107 -21.6875 50.91088867 C-22.06261719 51.67825851 -22.43773437 52.44562836 -22.82421875 53.23625183 C-24 55 -24 55 -27 56 C-26.39566331 52.24315603 -25.31213429 49.25366297 -23.60742188 45.85839844 C-23.1102063 44.86096619 -22.61299072 43.86353394 -22.10070801 42.83587646 C-21.56216187 41.77113098 -21.02361572 40.7063855 -20.46875 39.609375 C-19.64207825 37.95884125 -19.64207825 37.95884125 -18.79870605 36.27496338 C-17.63472196 33.95371032 -16.46786338 31.63389674 -15.29833984 29.31542969 C-13.50122669 25.75243207 -11.71277108 22.18527113 -9.92578125 18.6171875 C-8.79477031 16.36433251 -7.66327658 14.11171982 -6.53125 11.859375 C-5.99270386 10.78653259 -5.45415771 9.71369019 -4.89929199 8.6083374 C-4.40207642 7.62351379 -3.90486084 6.63869019 -3.39257812 5.62402344 C-2.95369263 4.75308044 -2.51480713 3.88213745 -2.06262207 2.98480225 C-1 1 -1 1 0 0 Z " fill="#103673" transform="translate(73,119)"/>
<path d="M0 0 C0.33 0 0.66 0 1 0 C1.78135229 6.09454784 -0.63976342 10.13783949 -4 15 C-8.06379392 19.94165232 -13.09639405 24.39427048 -19 27 C-19.66 26.67 -20.32 26.34 -21 26 C-20.50628906 25.52949219 -20.01257813 25.05898437 -19.50390625 24.57421875 C-18.86324219 23.95160156 -18.22257812 23.32898438 -17.5625 22.6875 C-16.92441406 22.07261719 -16.28632813 21.45773438 -15.62890625 20.82421875 C-13.7778582 18.99355944 -13.7778582 18.99355944 -13 16 C-11.328125 14.4921875 -11.328125 14.4921875 -9.25 12.875 C-4.85697289 9.18517327 -2.42669451 5.14505904 0 0 Z " fill="#124290" transform="translate(278,187)"/>
<path d="M0 0 C0.66 0.33 1.32 0.66 2 1 C-1.28532045 6.96505188 -5.3200177 13.60508464 -12.21484375 15.66015625 C-13.09849609 15.82837891 -13.09849609 15.82837891 -14 16 C-14.5625 13.375 -14.5625 13.375 -14 10 C-11.24544709 7.5985949 -8.13191781 5.86448619 -5 4 C-3.31337481 2.69200496 -1.63533988 1.37157538 0 0 Z " fill="#163A74" transform="translate(178,98)"/>
<path d="M0 0 C0.33 0 0.66 0 1 0 C1.36255924 5.31753555 1.36255924 5.31753555 -0.0625 8 C-4.01101458 12.07588602 -8.39653534 15.68550544 -13 19 C-13 18.01 -13 17.02 -13 16 C-11.42578125 14.4921875 -11.42578125 14.4921875 -9.3125 12.875 C-4.86833941 9.18863589 -2.44185523 5.17720268 0 0 Z M-19 24 C-19 24.99 -19 25.98 -19 27 C-19.66 26.67 -20.32 26.34 -21 26 C-20.34 25.34 -19.68 24.68 -19 24 Z " fill="#214E96" transform="translate(278,187)"/>
<path d="M0 0 C0.3125 2.8125 0.3125 2.8125 0 6 C-2.25 7.9375 -2.25 7.9375 -5 9 C-7.3125 8.6875 -7.3125 8.6875 -9 8 C-8.01 7.01 -7.02 6.02 -6 5 C-6.33 4.34 -6.66 3.68 -7 3 C-1.125 0 -1.125 0 0 0 Z " fill="#234F95" transform="translate(240,83)"/>
<path d="M0 0 C0.1875 2.875 0.1875 2.875 0 6 C-3.22791555 8.1519437 -4.28400809 8.20086443 -8 8 C-3.45945946 0 -3.45945946 0 0 0 Z " fill="#12418E" transform="translate(240,250)"/>
<path d="M0 0 C0.33 0 0.66 0 1 0 C1 2.97 1 5.94 1 9 C-2.3 9 -5.6 9 -9 9 C-8.01 8.34 -7.02 7.68 -6 7 C-2.55621587 3.83866694 -2.55621587 3.83866694 0 0 Z " fill="#000000" transform="translate(299,291)"/>
<path d="M0 0 C2.97 0 5.94 0 9 0 C9 2.97 9 5.94 9 9 C8.443125 8.2575 7.88625 7.515 7.3125 6.75 C5.06972822 4.08292005 2.77925025 2.08443768 0 0 Z " fill="#000000" transform="translate(291,0)"/>
<path d="M0 0 C2.97 0 5.94 0 9 0 C8.2575 0.556875 7.515 1.11375 6.75 1.6875 C4.08292005 3.93027178 2.08443768 6.22074975 0 9 C0 6.03 0 3.06 0 0 Z " fill="#000000" transform="translate(0,0)"/>
<path d="M0 0 C0.47050781 0.40992188 0.94101563 0.81984375 1.42578125 1.2421875 C2.04839844 1.78101563 2.67101562 2.31984375 3.3125 2.875 C4.23482422 3.67550781 4.23482422 3.67550781 5.17578125 4.4921875 C7.13498212 6.1640447 7.13498212 6.1640447 10 8 C6.7 8 3.4 8 0 8 C0 5.36 0 2.72 0 0 Z " fill="#000000" transform="translate(0,292)"/>
<path d="M0 0 C0.66 0.33 1.32 0.66 2 1 C-0.31 3.31 -2.62 5.62 -5 8 C-5.33 7.34 -5.66 6.68 -6 6 C-2.25 1.125 -2.25 1.125 0 0 Z " fill="#5D92E1" transform="translate(7,1)"/>
<path d="M0 0 C0.66 0.33 1.32 0.66 2 1 C1.75 3.375 1.75 3.375 1 6 C-1.0625 7.3125 -1.0625 7.3125 -3 8 C-1.125 2.25 -1.125 2.25 0 0 Z " fill="#305083" transform="translate(218,135)"/>
<path d="M0 0 C0.33 0 0.66 0 1 0 C1.25 2.75 1.25 2.75 1 6 C-1 8.375 -1 8.375 -3 10 C-3 6.13304322 -1.58090029 3.4911548 0 0 Z " fill="#2B4C7F" transform="translate(180,90)"/>
</svg>
